<mxfile host="app.diagrams.net" modified="2021-07-11T15:25:24.570Z" agent="5.0 (Windows NT 10.0; Win64; x64) AppleWebKit/537.36 (KHTML, like Gecko) Chrome/91.0.4472.124 Safari/537.36 Edg/91.0.864.67" etag="SS5o2As5Mt7VQLHLhWSQ" version="14.8.4" type="github">
  <diagram id="FLyvPj0ArDpUNkSXzJvb" name="Architecture">
    <mxGraphModel dx="1422" dy="746" grid="1" gridSize="10" guides="1" tooltips="1" connect="1" arrows="1" fold="1" page="1" pageScale="1" pageWidth="1100" pageHeight="850" math="0" shadow="0">
      <root>
        <mxCell id="0" />
        <mxCell id="1" parent="0" />
        <mxCell id="CIC05ETwrQ1PHHYtpmix-1" value="" style="shape=image;imageAspect=0;aspect=fixed;verticalLabelPosition=bottom;verticalAlign=top;image=https://cdn.hashnode.com/res/hashnode/image/upload/v1626015110310/Z-2u6lb4M8.png?auto=compress;" vertex="1" parent="1">
          <mxGeometry width="1350" height="810" as="geometry" />
        </mxCell>
      </root>
    </mxGraphModel>
  </diagram>
</mxfile>
